<svg width="191" height="63" viewBox="0 0 191 63" fill="none" xmlns="http://www.w3.org/2000/svg">
<mask id="path-1-outside-1_1_2074" maskUnits="userSpaceOnUse" x="76" y="24" width="98" height="17" fill="black">
<rect fill="white" x="76" y="24" width="98" height="17"/>
<path d="M84.847 36.644C85.5437 36.644 86.196 36.4983 86.804 36.207C87.412 35.9157 87.9503 35.4977 88.419 34.953L90.224 36.739C89.5907 37.4863 88.78 38.0817 87.792 38.525C86.8167 38.9683 85.8097 39.19 84.771 39.19C83.7703 39.19 82.833 39.0127 81.959 38.658C81.0977 38.3033 80.3503 37.822 79.717 37.214C79.0837 36.606 78.5833 35.884 78.216 35.048C77.8613 34.212 77.684 33.3127 77.684 32.35C77.684 31.3873 77.8677 30.488 78.235 29.652C78.6023 28.8033 79.1027 28.075 79.736 27.467C80.3693 26.859 81.1167 26.3777 81.978 26.023C82.852 25.6683 83.783 25.491 84.771 25.491C85.835 25.491 86.8673 25.719 87.868 26.175C88.8687 26.6183 89.6793 27.22 90.3 27.98L88.438 29.823C87.9693 29.2403 87.4183 28.797 86.785 28.493C86.1517 28.1763 85.4803 28.018 84.771 28.018C84.1757 28.018 83.612 28.132 83.08 28.36C82.5607 28.5753 82.111 28.8793 81.731 29.272C81.351 29.652 81.0533 30.108 80.838 30.64C80.6227 31.1593 80.515 31.7293 80.515 32.35C80.515 32.958 80.6227 33.528 80.838 34.06C81.066 34.5793 81.37 35.029 81.75 35.409C82.1427 35.789 82.5987 36.093 83.118 36.321C83.65 36.5363 84.2263 36.644 84.847 36.644ZM105.03 32.35C105.03 33.3 104.846 34.1993 104.479 35.048C104.111 35.884 103.611 36.6123 102.978 37.233C102.357 37.841 101.616 38.3223 100.755 38.677C99.8933 39.0317 98.9686 39.209 97.9806 39.209C97.0053 39.209 96.0869 39.0317 95.2256 38.677C94.3643 38.3223 93.6169 37.841 92.9836 37.233C92.3629 36.6123 91.8689 35.884 91.5016 35.048C91.1343 34.1993 90.9506 33.3 90.9506 32.35C90.9506 31.4 91.1343 30.507 91.5016 29.671C91.8689 28.8223 92.3629 28.094 92.9836 27.486C93.6169 26.8653 94.3643 26.3777 95.2256 26.023C96.0869 25.6683 97.0053 25.491 97.9806 25.491C98.9686 25.491 99.8933 25.6683 100.755 26.023C101.616 26.3777 102.357 26.8653 102.978 27.486C103.611 28.094 104.111 28.8223 104.479 29.671C104.846 30.507 105.03 31.4 105.03 32.35ZM102.199 32.35C102.199 31.7293 102.091 31.1593 101.876 30.64C101.66 30.108 101.363 29.652 100.983 29.272C100.615 28.8793 100.172 28.5753 99.6526 28.36C99.1333 28.132 98.5759 28.018 97.9806 28.018C97.3853 28.018 96.8279 28.132 96.3086 28.36C95.8019 28.5753 95.3586 28.8793 94.9786 29.272C94.6113 29.652 94.3199 30.108 94.1046 30.64C93.8893 31.1593 93.7816 31.7293 93.7816 32.35C93.7816 32.958 93.8893 33.528 94.1046 34.06C94.3199 34.592 94.6113 35.0543 94.9786 35.447C95.3586 35.827 95.8019 36.131 96.3086 36.359C96.8279 36.5743 97.3853 36.682 97.9806 36.682C98.5759 36.682 99.1333 36.5743 99.6526 36.359C100.172 36.131 100.615 35.827 100.983 35.447C101.363 35.0543 101.66 34.592 101.876 34.06C102.091 33.528 102.199 32.958 102.199 32.35ZM110.3 39L104.904 25.7H107.887L111.953 36.207L116.114 25.7H118.964L113.492 39H110.3ZM120.093 39V25.7H122.848V39H120.093ZM125.27 39V25.7H130.381C131.369 25.7 132.294 25.871 133.155 26.213C134.017 26.555 134.758 27.0237 135.378 27.619C136.012 28.2143 136.506 28.9237 136.86 29.747C137.228 30.5703 137.411 31.4507 137.411 32.388C137.411 33.3127 137.228 34.1803 136.86 34.991C136.506 35.8017 136.012 36.5047 135.378 37.1C134.758 37.6827 134.017 38.145 133.155 38.487C132.294 38.829 131.369 39 130.381 39H125.27ZM130.362 28.151H128.025V36.549H130.362C130.945 36.549 131.49 36.4413 131.996 36.226C132.516 36.0107 132.965 35.7193 133.345 35.352C133.725 34.972 134.023 34.5287 134.238 34.022C134.454 33.5153 134.561 32.9707 134.561 32.388C134.561 31.7927 134.454 31.2353 134.238 30.716C134.023 30.1967 133.725 29.747 133.345 29.367C132.965 28.987 132.516 28.6893 131.996 28.474C131.49 28.2587 130.945 28.151 130.362 28.151ZM142.702 32.483H149.846V34.687H142.702V32.483ZM160.071 25.7V39H157.468V28.341L154.865 29.405V27.144L158.418 25.7H160.071ZM166.676 25.472C167.55 25.472 168.348 25.6367 169.07 25.966C169.792 26.2827 170.406 26.7323 170.913 27.315C171.432 27.885 171.831 28.5753 172.11 29.386C172.401 30.1967 172.547 31.0897 172.547 32.065C172.547 33.129 172.389 34.1043 172.072 34.991C171.755 35.865 171.312 36.6123 170.742 37.233C170.172 37.8537 169.482 38.335 168.671 38.677C167.86 39.019 166.967 39.19 165.992 39.19C165.27 39.19 164.554 39.076 163.845 38.848C163.136 38.6073 162.54 38.2907 162.059 37.898L163.541 36.036C163.934 36.34 164.345 36.5617 164.776 36.701C165.207 36.8403 165.675 36.91 166.182 36.91C167.322 36.91 168.215 36.5237 168.861 35.751C169.52 34.9657 169.881 33.8573 169.944 32.426C169.513 32.9073 168.981 33.2873 168.348 33.566C167.715 33.832 167.043 33.965 166.334 33.965C165.663 33.965 165.042 33.8637 164.472 33.661C163.902 33.4583 163.408 33.1797 162.99 32.825C162.585 32.4577 162.268 32.027 162.04 31.533C161.812 31.0263 161.698 30.4753 161.698 29.88C161.698 29.2467 161.825 28.664 162.078 28.132C162.331 27.5873 162.673 27.1187 163.104 26.726C163.547 26.3333 164.073 26.0293 164.681 25.814C165.302 25.586 165.967 25.472 166.676 25.472ZM166.752 31.913C167.347 31.913 167.898 31.7863 168.405 31.533C168.924 31.2797 169.387 30.9187 169.792 30.45C169.589 29.614 169.222 28.9427 168.69 28.436C168.158 27.9293 167.525 27.676 166.79 27.676C166.068 27.676 165.46 27.8787 164.966 28.284C164.485 28.6893 164.244 29.2023 164.244 29.823C164.244 30.4437 164.478 30.9503 164.947 31.343C165.416 31.723 166.017 31.913 166.752 31.913Z"/>
</mask>
<path d="M84.847 36.644C85.5437 36.644 86.196 36.4983 86.804 36.207C87.412 35.9157 87.9503 35.4977 88.419 34.953L90.224 36.739C89.5907 37.4863 88.78 38.0817 87.792 38.525C86.8167 38.9683 85.8097 39.19 84.771 39.19C83.7703 39.19 82.833 39.0127 81.959 38.658C81.0977 38.3033 80.3503 37.822 79.717 37.214C79.0837 36.606 78.5833 35.884 78.216 35.048C77.8613 34.212 77.684 33.3127 77.684 32.35C77.684 31.3873 77.8677 30.488 78.235 29.652C78.6023 28.8033 79.1027 28.075 79.736 27.467C80.3693 26.859 81.1167 26.3777 81.978 26.023C82.852 25.6683 83.783 25.491 84.771 25.491C85.835 25.491 86.8673 25.719 87.868 26.175C88.8687 26.6183 89.6793 27.22 90.3 27.98L88.438 29.823C87.9693 29.2403 87.4183 28.797 86.785 28.493C86.1517 28.1763 85.4803 28.018 84.771 28.018C84.1757 28.018 83.612 28.132 83.08 28.36C82.5607 28.5753 82.111 28.8793 81.731 29.272C81.351 29.652 81.0533 30.108 80.838 30.64C80.6227 31.1593 80.515 31.7293 80.515 32.35C80.515 32.958 80.6227 33.528 80.838 34.06C81.066 34.5793 81.37 35.029 81.75 35.409C82.1427 35.789 82.5987 36.093 83.118 36.321C83.65 36.5363 84.2263 36.644 84.847 36.644ZM105.03 32.35C105.03 33.3 104.846 34.1993 104.479 35.048C104.111 35.884 103.611 36.6123 102.978 37.233C102.357 37.841 101.616 38.3223 100.755 38.677C99.8933 39.0317 98.9686 39.209 97.9806 39.209C97.0053 39.209 96.0869 39.0317 95.2256 38.677C94.3643 38.3223 93.6169 37.841 92.9836 37.233C92.3629 36.6123 91.8689 35.884 91.5016 35.048C91.1343 34.1993 90.9506 33.3 90.9506 32.35C90.9506 31.4 91.1343 30.507 91.5016 29.671C91.8689 28.8223 92.3629 28.094 92.9836 27.486C93.6169 26.8653 94.3643 26.3777 95.2256 26.023C96.0869 25.6683 97.0053 25.491 97.9806 25.491C98.9686 25.491 99.8933 25.6683 100.755 26.023C101.616 26.3777 102.357 26.8653 102.978 27.486C103.611 28.094 104.111 28.8223 104.479 29.671C104.846 30.507 105.03 31.4 105.03 32.35ZM102.199 32.35C102.199 31.7293 102.091 31.1593 101.876 30.64C101.66 30.108 101.363 29.652 100.983 29.272C100.615 28.8793 100.172 28.5753 99.6526 28.36C99.1333 28.132 98.5759 28.018 97.9806 28.018C97.3853 28.018 96.8279 28.132 96.3086 28.36C95.8019 28.5753 95.3586 28.8793 94.9786 29.272C94.6113 29.652 94.3199 30.108 94.1046 30.64C93.8893 31.1593 93.7816 31.7293 93.7816 32.35C93.7816 32.958 93.8893 33.528 94.1046 34.06C94.3199 34.592 94.6113 35.0543 94.9786 35.447C95.3586 35.827 95.8019 36.131 96.3086 36.359C96.8279 36.5743 97.3853 36.682 97.9806 36.682C98.5759 36.682 99.1333 36.5743 99.6526 36.359C100.172 36.131 100.615 35.827 100.983 35.447C101.363 35.0543 101.66 34.592 101.876 34.06C102.091 33.528 102.199 32.958 102.199 32.35ZM110.3 39L104.904 25.7H107.887L111.953 36.207L116.114 25.7H118.964L113.492 39H110.3ZM120.093 39V25.7H122.848V39H120.093ZM125.27 39V25.7H130.381C131.369 25.7 132.294 25.871 133.155 26.213C134.017 26.555 134.758 27.0237 135.378 27.619C136.012 28.2143 136.506 28.9237 136.86 29.747C137.228 30.5703 137.411 31.4507 137.411 32.388C137.411 33.3127 137.228 34.1803 136.86 34.991C136.506 35.8017 136.012 36.5047 135.378 37.1C134.758 37.6827 134.017 38.145 133.155 38.487C132.294 38.829 131.369 39 130.381 39H125.27ZM130.362 28.151H128.025V36.549H130.362C130.945 36.549 131.49 36.4413 131.996 36.226C132.516 36.0107 132.965 35.7193 133.345 35.352C133.725 34.972 134.023 34.5287 134.238 34.022C134.454 33.5153 134.561 32.9707 134.561 32.388C134.561 31.7927 134.454 31.2353 134.238 30.716C134.023 30.1967 133.725 29.747 133.345 29.367C132.965 28.987 132.516 28.6893 131.996 28.474C131.49 28.2587 130.945 28.151 130.362 28.151ZM142.702 32.483H149.846V34.687H142.702V32.483ZM160.071 25.7V39H157.468V28.341L154.865 29.405V27.144L158.418 25.7H160.071ZM166.676 25.472C167.55 25.472 168.348 25.6367 169.07 25.966C169.792 26.2827 170.406 26.7323 170.913 27.315C171.432 27.885 171.831 28.5753 172.11 29.386C172.401 30.1967 172.547 31.0897 172.547 32.065C172.547 33.129 172.389 34.1043 172.072 34.991C171.755 35.865 171.312 36.6123 170.742 37.233C170.172 37.8537 169.482 38.335 168.671 38.677C167.86 39.019 166.967 39.19 165.992 39.19C165.27 39.19 164.554 39.076 163.845 38.848C163.136 38.6073 162.54 38.2907 162.059 37.898L163.541 36.036C163.934 36.34 164.345 36.5617 164.776 36.701C165.207 36.8403 165.675 36.91 166.182 36.91C167.322 36.91 168.215 36.5237 168.861 35.751C169.52 34.9657 169.881 33.8573 169.944 32.426C169.513 32.9073 168.981 33.2873 168.348 33.566C167.715 33.832 167.043 33.965 166.334 33.965C165.663 33.965 165.042 33.8637 164.472 33.661C163.902 33.4583 163.408 33.1797 162.99 32.825C162.585 32.4577 162.268 32.027 162.04 31.533C161.812 31.0263 161.698 30.4753 161.698 29.88C161.698 29.2467 161.825 28.664 162.078 28.132C162.331 27.5873 162.673 27.1187 163.104 26.726C163.547 26.3333 164.073 26.0293 164.681 25.814C165.302 25.586 165.967 25.472 166.676 25.472ZM166.752 31.913C167.347 31.913 167.898 31.7863 168.405 31.533C168.924 31.2797 169.387 30.9187 169.792 30.45C169.589 29.614 169.222 28.9427 168.69 28.436C168.158 27.9293 167.525 27.676 166.79 27.676C166.068 27.676 165.46 27.8787 164.966 28.284C164.485 28.6893 164.244 29.2023 164.244 29.823C164.244 30.4437 164.478 30.9503 164.947 31.343C165.416 31.723 166.017 31.913 166.752 31.913Z" fill="#FFA2A1"/>
<path d="M86.804 36.207L87.2361 37.1088L87.2361 37.1088L86.804 36.207ZM88.419 34.953L89.1224 34.2422L88.3603 33.4881L87.661 34.3008L88.419 34.953ZM90.224 36.739L90.9869 37.3855L91.5854 36.6793L90.9274 36.0282L90.224 36.739ZM87.792 38.525L87.3826 37.6126L87.3782 37.6146L87.792 38.525ZM81.959 38.658L81.5782 39.5827L81.583 39.5846L81.959 38.658ZM79.717 37.214L80.4095 36.4926L80.4095 36.4926L79.717 37.214ZM78.216 35.048L77.2953 35.4386L77.3005 35.4503L78.216 35.048ZM78.235 29.652L79.1505 30.0543L79.1527 30.0492L78.235 29.652ZM79.736 27.467L79.0435 26.7456L79.0435 26.7456L79.736 27.467ZM81.978 26.023L81.602 25.0964L81.5973 25.0983L81.978 26.023ZM87.868 26.175L87.4533 27.085L87.4629 27.0893L87.868 26.175ZM90.3 27.98L91.0035 28.6907L91.6494 28.0514L91.0745 27.3475L90.3 27.98ZM88.438 29.823L87.6588 30.4498L88.3536 31.3136L89.1415 30.5337L88.438 29.823ZM86.785 28.493L86.3378 29.3874L86.345 29.391L86.3523 29.3945L86.785 28.493ZM83.08 28.36L83.463 29.2838L83.4739 29.2791L83.08 28.36ZM81.731 29.272L82.4381 29.9791L82.4439 29.9733L82.4496 29.9674L81.731 29.272ZM80.838 30.64L81.7618 31.023L81.7649 31.0152L80.838 30.64ZM80.838 34.06L79.9111 34.4352L79.9165 34.4487L79.9224 34.462L80.838 34.06ZM81.75 35.409L81.0429 36.1161L81.0487 36.1219L81.0546 36.1276L81.75 35.409ZM83.118 36.321L82.716 37.2366L82.7293 37.2425L82.7428 37.2479L83.118 36.321ZM84.847 37.644C85.6881 37.644 86.4887 37.467 87.2361 37.1088L86.3719 35.3052C85.9033 35.5297 85.3992 35.644 84.847 35.644V37.644ZM87.2361 37.1088C87.9769 36.7539 88.6242 36.2477 89.177 35.6052L87.661 34.3008C87.2765 34.7476 86.8471 35.0775 86.3719 35.3052L87.2361 37.1088ZM87.7156 35.6638L89.5206 37.4498L90.9274 36.0282L89.1224 34.2422L87.7156 35.6638ZM89.4611 36.0925C88.9341 36.7144 88.2489 37.2239 87.3826 37.6126L88.2014 39.4374C89.3111 38.9394 90.2473 38.2583 90.9869 37.3855L89.4611 36.0925ZM87.3782 37.6146C86.5286 38.0008 85.6624 38.19 84.771 38.19V40.19C85.957 40.19 87.1047 39.9359 88.2058 39.4354L87.3782 37.6146ZM84.771 38.19C83.8913 38.19 83.0824 38.0347 82.335 37.7314L81.583 39.5846C82.5836 39.9906 83.6494 40.19 84.771 40.19V38.19ZM82.3397 37.7333C81.587 37.4234 80.9472 37.0087 80.4095 36.4926L79.0245 37.9354C79.7535 38.6353 80.6083 39.1833 81.5783 39.5827L82.3397 37.7333ZM80.4095 36.4926C79.8745 35.979 79.4483 35.3667 79.1315 34.6457L77.3005 35.4503C77.7184 36.4013 78.2928 37.233 79.0245 37.9354L80.4095 36.4926ZM79.1366 34.6575C78.8374 33.9523 78.684 33.1867 78.684 32.35H76.684C76.684 33.4387 76.8852 34.4717 77.2954 35.4385L79.1366 34.6575ZM78.684 32.35C78.684 31.5182 78.8419 30.7567 79.1505 30.0543L77.3195 29.2497C76.8934 30.2193 76.684 31.2565 76.684 32.35H78.684ZM79.1527 30.0492C79.4701 29.3159 79.8961 28.6995 80.4285 28.1884L79.0435 26.7456C78.3092 27.4505 77.7345 28.2908 77.3173 29.2548L79.1527 30.0492ZM80.4285 28.1884C80.9662 27.6723 81.606 27.2576 82.3588 26.9477L81.5973 25.0983C80.6273 25.4977 79.7725 26.0457 79.0435 26.7456L80.4285 28.1884ZM82.354 26.9496C83.1029 26.6457 83.9057 26.491 84.771 26.491V24.491C83.6603 24.491 82.6011 24.691 81.602 25.0964L82.354 26.9496ZM84.771 26.491C85.6871 26.491 86.5784 26.6863 87.4533 27.085L88.2827 25.265C87.1563 24.7517 85.9829 24.491 84.771 24.491V26.491ZM87.4629 27.0893C88.3368 27.4764 89.0151 27.9876 89.5255 28.6125L91.0745 27.3475C90.3436 26.4524 89.4005 25.7602 88.2731 25.2607L87.4629 27.0893ZM89.5965 27.2693L87.7345 29.1123L89.1415 30.5337L91.0035 28.6907L89.5965 27.2693ZM89.2172 29.1962C88.6612 28.5049 87.9942 27.9642 87.2177 27.5915L86.3523 29.3945C86.8425 29.6298 87.2775 29.9757 87.6588 30.4498L89.2172 29.1962ZM87.2322 27.5986C86.4598 27.2124 85.6353 27.018 84.771 27.018V29.018C85.3254 29.018 85.8436 29.1403 86.3378 29.3874L87.2322 27.5986ZM84.771 27.018C84.0442 27.018 83.3461 27.158 82.6861 27.4409L83.4739 29.2791C83.8779 29.106 84.3071 29.018 84.771 29.018V27.018ZM82.697 27.4363C82.0551 27.7024 81.4902 28.0828 81.0124 28.5766L82.4496 29.9674C82.7318 29.6759 83.0662 29.4483 83.463 29.2837L82.697 27.4363ZM81.0239 28.5649C80.5428 29.046 80.1732 29.6171 79.9111 30.2648L81.7649 31.0152C81.9335 30.5989 82.1592 30.258 82.4381 29.9791L81.0239 28.5649ZM79.9143 30.257C79.6436 30.9098 79.515 31.6116 79.515 32.35H81.515C81.515 31.8471 81.6018 31.4089 81.7617 31.023L79.9143 30.257ZM79.515 32.35C79.515 33.0789 79.6447 33.777 79.9111 34.4352L81.7649 33.6848C81.6007 33.279 81.515 32.8371 81.515 32.35H79.515ZM79.9224 34.462C80.1975 35.0887 80.5702 35.6434 81.0429 36.1161L82.4571 34.7019C82.1698 34.4146 81.9345 34.0699 81.7536 33.658L79.9224 34.462ZM81.0546 36.1276C81.5358 36.5933 82.0921 36.9627 82.716 37.2366L83.52 35.4054C83.1052 35.2233 82.7495 34.9847 82.4454 34.6904L81.0546 36.1276ZM82.7428 37.2479C83.4034 37.5153 84.1083 37.644 84.847 37.644V35.644C84.3444 35.644 83.8966 35.5573 83.4932 35.3941L82.7428 37.2479ZM104.479 35.048L105.394 35.4503L105.396 35.4452L104.479 35.048ZM102.978 37.233L103.677 37.9474L103.678 37.9472L102.978 37.233ZM100.755 38.677L101.135 39.6017L101.135 39.6017L100.755 38.677ZM95.2256 38.677L94.8449 39.6017L94.8449 39.6017L95.2256 38.677ZM92.9836 37.233L92.2765 37.9401L92.2837 37.9473L92.2911 37.9544L92.9836 37.233ZM91.5016 35.048L90.5839 35.4452L90.5861 35.4503L91.5016 35.048ZM91.5016 29.671L92.4171 30.0733L92.4193 30.0682L91.5016 29.671ZM92.9836 27.486L93.6834 28.2004L93.6835 28.2002L92.9836 27.486ZM95.2256 26.023L94.8449 25.0983L94.8449 25.0983L95.2256 26.023ZM100.755 26.023L101.135 25.0983L101.135 25.0983L100.755 26.023ZM102.978 27.486L102.27 28.1931L102.278 28.2003L102.285 28.2074L102.978 27.486ZM104.479 29.671L103.561 30.0682L103.563 30.0733L104.479 29.671ZM101.876 30.64L100.949 31.0152L100.952 31.023L101.876 30.64ZM100.983 29.272L100.252 29.9552L100.264 29.9673L100.275 29.9791L100.983 29.272ZM99.6526 28.36L99.2506 29.2756L99.2601 29.2798L99.2696 29.2837L99.6526 28.36ZM96.3086 28.36L96.6998 29.2804L96.7106 29.2756L96.3086 28.36ZM94.9786 29.272L94.26 28.5766L94.2596 28.577L94.9786 29.272ZM94.1046 30.64L95.0284 31.023L95.0315 31.0152L94.1046 30.64ZM94.1046 34.06L95.0315 33.6848L95.0315 33.6848L94.1046 34.06ZM94.9786 35.447L94.2483 36.1302L94.2597 36.1423L94.2715 36.1541L94.9786 35.447ZM96.3086 36.359L95.8982 37.2709L95.9118 37.277L95.9256 37.2827L96.3086 36.359ZM99.6526 36.359L100.036 37.2827L100.045 37.2788L100.055 37.2746L99.6526 36.359ZM100.983 35.447L100.264 34.7516L100.264 34.752L100.983 35.447ZM101.876 34.06L100.949 33.6848L100.949 33.6848L101.876 34.06ZM104.03 32.35C104.03 33.1672 103.872 33.931 103.561 34.6508L105.396 35.4452C105.819 34.4677 106.03 33.4328 106.03 32.35H104.03ZM103.563 34.6457C103.246 35.3685 102.817 35.9901 102.278 36.5188L103.678 37.9472C104.405 37.2346 104.977 36.3995 105.394 35.4503L103.563 34.6457ZM102.278 36.5186C101.755 37.0304 101.125 37.443 100.374 37.7523L101.135 39.6017C102.107 39.2016 102.958 38.6516 103.677 37.9474L102.278 36.5186ZM100.374 37.7523C99.6405 38.0543 98.846 38.209 97.9806 38.209V40.209C99.0912 40.209 100.146 40.009 101.135 39.6017L100.374 37.7523ZM97.9806 38.209C97.1296 38.209 96.3413 38.0549 95.6064 37.7523L94.8449 39.6017C95.8326 40.0084 96.8809 40.209 97.9806 40.209V38.209ZM95.6064 37.7523C94.8536 37.4424 94.2138 37.0277 93.6761 36.5116L92.2911 37.9544C93.0201 38.6543 93.8749 39.2023 94.8449 39.6017L95.6064 37.7523ZM93.6907 36.5259C93.1614 35.9965 92.7366 35.3727 92.4171 34.6457L90.5861 35.4503C91.0013 36.3953 91.5645 37.2281 92.2765 37.9401L93.6907 36.5259ZM92.4193 34.6508C92.1078 33.931 91.9506 33.1672 91.9506 32.35H89.9506C89.9506 33.4328 90.1608 34.4677 90.5839 35.4452L92.4193 34.6508ZM91.9506 32.35C91.9506 31.5328 92.1078 30.7773 92.4171 30.0733L90.5861 29.2687C90.1608 30.2367 89.9506 31.2672 89.9506 32.35H91.9506ZM92.4193 30.0682C92.7386 29.3306 93.161 28.712 93.6834 28.2004L92.2838 26.7716C91.5648 27.476 90.9993 28.314 90.5839 29.2738L92.4193 30.0682ZM93.6835 28.2002C94.2204 27.6741 94.8579 27.2559 95.6064 26.9477L94.8449 25.0983C93.8707 25.4995 93.0135 26.0566 92.2837 26.7718L93.6835 28.2002ZM95.6064 26.9477C96.3413 26.6451 97.1296 26.491 97.9806 26.491V24.491C96.8809 24.491 95.8326 24.6916 94.8449 25.0983L95.6064 26.9477ZM97.9806 26.491C98.846 26.491 99.6405 26.6457 100.374 26.9477L101.135 25.0983C100.146 24.691 99.0912 24.491 97.9806 24.491V26.491ZM100.374 26.9477C101.121 27.2552 101.749 27.6714 102.27 28.1931L103.685 26.7789C102.965 26.0592 102.111 25.5001 101.135 25.0983L100.374 26.9477ZM102.285 28.2074C102.817 28.7185 103.243 29.3349 103.561 30.0682L105.396 29.2738C104.979 28.3098 104.404 27.4695 103.67 26.7646L102.285 28.2074ZM103.563 30.0733C103.872 30.7773 104.03 31.5328 104.03 32.35H106.03C106.03 31.2672 105.819 30.2367 105.394 29.2687L103.563 30.0733ZM103.199 32.35C103.199 31.6116 103.07 30.9098 102.799 30.257L100.952 31.023C101.112 31.4089 101.199 31.8471 101.199 32.35H103.199ZM102.803 30.2648C102.54 29.6171 102.171 29.046 101.69 28.5649L100.275 29.9791C100.554 30.258 100.78 30.5989 100.949 31.0152L102.803 30.2648ZM101.713 28.5888C101.244 28.0874 100.68 27.7036 100.036 27.4363L99.2696 29.2837C99.6635 29.4471 99.9867 29.6712 100.252 29.9552L101.713 28.5888ZM100.055 27.4444C99.4023 27.158 98.7073 27.018 97.9806 27.018V29.018C98.4446 29.018 98.8643 29.106 99.2506 29.2756L100.055 27.4444ZM97.9806 27.018C97.2539 27.018 96.5589 27.158 95.9066 27.4444L96.7106 29.2756C97.0969 29.106 97.5167 29.018 97.9806 29.018V27.018ZM95.9175 27.4397C95.2886 27.7069 94.7337 28.0871 94.26 28.5766L95.6972 29.9674C95.9835 29.6716 96.3152 29.4438 96.6997 29.2803L95.9175 27.4397ZM94.2596 28.577C93.7957 29.0569 93.437 29.6241 93.1777 30.2648L95.0315 31.0152C95.2029 30.5919 95.4269 30.2471 95.6976 29.967L94.2596 28.577ZM93.1809 30.257C92.9102 30.9098 92.7816 31.6116 92.7816 32.35H94.7816C94.7816 31.8471 94.8684 31.4089 95.0283 31.023L93.1809 30.257ZM92.7816 32.35C92.7816 33.0789 92.9113 33.777 93.1777 34.4352L95.0315 33.6848C94.8673 33.279 94.7816 32.8371 94.7816 32.35H92.7816ZM93.1777 34.4352C93.4359 35.0733 93.7916 35.6419 94.2483 36.1302L95.7089 34.7638C95.431 34.4668 95.2039 34.1107 95.0315 33.6848L93.1777 34.4352ZM94.2715 36.1541C94.7401 36.6227 95.2849 36.9949 95.8982 37.2709L96.719 35.4471C96.319 35.2671 95.9771 35.0313 95.6857 34.7399L94.2715 36.1541ZM95.9256 37.2827C96.5734 37.5513 97.2617 37.682 97.9806 37.682V35.682C97.5089 35.682 97.0825 35.5973 96.6916 35.4353L95.9256 37.2827ZM97.9806 37.682C98.6995 37.682 99.3878 37.5513 100.036 37.2827L99.2696 35.4353C98.8787 35.5973 98.4523 35.682 97.9806 35.682V37.682ZM100.055 37.2746C100.684 36.9983 101.237 36.6221 101.702 36.142L100.264 34.752C99.993 35.0319 99.6597 35.2637 99.2506 35.4434L100.055 37.2746ZM101.701 36.1424C102.175 35.6528 102.541 35.0802 102.803 34.4352L100.949 33.6848C100.779 34.1038 100.55 34.4559 100.264 34.7516L101.701 36.1424ZM102.803 34.4352C103.069 33.777 103.199 33.0789 103.199 32.35H101.199C101.199 32.8371 101.113 33.279 100.949 33.6848L102.803 34.4352ZM110.3 39L109.374 39.376L109.627 40H110.3V39ZM104.904 25.7V24.7H103.42L103.978 26.0759L104.904 25.7ZM107.887 25.7L108.82 25.3391L108.573 24.7H107.887V25.7ZM111.953 36.207L111.021 36.5679L111.943 38.9501L112.883 36.5752L111.953 36.207ZM116.114 25.7V24.7H115.435L115.185 25.3318L116.114 25.7ZM118.964 25.7L119.889 26.0805L120.457 24.7H118.964V25.7ZM113.492 39V40H114.162L114.417 39.3805L113.492 39ZM111.227 38.624L105.831 25.324L103.978 26.0759L109.374 39.376L111.227 38.624ZM104.904 26.7H107.887V24.7H104.904V26.7ZM106.955 26.0609L111.021 36.5679L112.886 35.8461L108.82 25.3391L106.955 26.0609ZM112.883 36.5752L117.044 26.0682L115.185 25.3318L111.024 35.8388L112.883 36.5752ZM116.114 26.7H118.964V24.7H116.114V26.7ZM118.04 25.3195L112.568 38.6195L114.417 39.3805L119.889 26.0805L118.04 25.3195ZM113.492 38H110.3V40H113.492V38ZM120.093 39H119.093V40H120.093V39ZM120.093 25.7V24.7H119.093V25.7H120.093ZM122.848 25.7H123.848V24.7H122.848V25.7ZM122.848 39V40H123.848V39H122.848ZM121.093 39V25.7H119.093V39H121.093ZM120.093 26.7H122.848V24.7H120.093V26.7ZM121.848 25.7V39H123.848V25.7H121.848ZM122.848 38H120.093V40H122.848V38ZM125.27 39H124.27V40H125.27V39ZM125.27 25.7V24.7H124.27V25.7H125.27ZM135.378 27.619L134.686 28.3407L134.693 28.3476L135.378 27.619ZM136.86 29.747L135.942 30.1427L135.947 30.1544L136.86 29.747ZM136.86 34.991L135.949 34.5782L135.944 34.5902L136.86 34.991ZM135.378 37.1L136.063 37.8291L136.063 37.8286L135.378 37.1ZM128.025 28.151V27.151H127.025V28.151H128.025ZM128.025 36.549H127.025V37.549H128.025V36.549ZM131.996 36.226L131.613 35.3022L131.605 35.3057L131.996 36.226ZM133.345 35.352L134.04 36.071L134.046 36.0651L134.052 36.0591L133.345 35.352ZM134.238 34.022L133.318 33.6309L133.318 33.6309L134.238 34.022ZM133.345 29.367L134.052 28.6599L134.052 28.6599L133.345 29.367ZM131.996 28.474L131.605 29.3944L131.613 29.3977L131.996 28.474ZM126.27 39V25.7H124.27V39H126.27ZM125.27 26.7H130.381V24.7H125.27V26.7ZM130.381 26.7C131.251 26.7 132.05 26.8501 132.786 27.1424L133.524 25.2836C132.538 24.8919 131.487 24.7 130.381 24.7V26.7ZM132.786 27.1424C133.537 27.4404 134.166 27.8416 134.686 28.3407L136.07 26.8973C135.349 26.2058 134.496 25.6696 133.524 25.2836L132.786 27.1424ZM134.693 28.3476C135.224 28.8462 135.64 29.4411 135.942 30.1426L137.779 29.3514C137.372 28.4063 136.799 27.5825 136.063 26.8904L134.693 28.3476ZM135.947 30.1544C136.255 30.8445 136.411 31.5854 136.411 32.388H138.411C138.411 31.316 138.2 30.2962 137.773 29.3396L135.947 30.1544ZM136.411 32.388C136.411 33.176 136.256 33.9023 135.949 34.5783L137.771 35.4037C138.199 34.4583 138.411 33.4493 138.411 32.388H136.411ZM135.944 34.5902C135.643 35.2794 135.226 35.8703 134.693 36.3714L136.063 37.8286C136.797 37.1391 137.369 36.324 137.776 35.3918L135.944 34.5902ZM134.694 36.3709C134.173 36.8603 133.541 37.2578 132.786 37.5576L133.524 39.4164C134.492 39.0322 135.343 38.5051 136.063 37.8291L134.694 36.3709ZM132.786 37.5576C132.05 37.8499 131.251 38 130.381 38V40C131.487 40 132.538 39.8081 133.524 39.4164L132.786 37.5576ZM130.381 38H125.27V40H130.381V38ZM130.362 27.151H128.025V29.151H130.362V27.151ZM127.025 28.151V36.549H129.025V28.151H127.025ZM128.025 37.549H130.362V35.549H128.025V37.549ZM130.362 37.549C131.071 37.549 131.75 37.4173 132.387 37.1463L131.605 35.3057C131.229 35.4654 130.818 35.549 130.362 35.549V37.549ZM132.379 37.1497C133.007 36.8894 133.564 36.531 134.04 36.071L132.65 34.633C132.366 34.9077 132.024 35.1319 131.613 35.3023L132.379 37.1497ZM134.052 36.0591C134.525 35.5862 134.894 35.0349 135.159 34.4131L133.318 33.6309C133.151 34.0225 132.925 34.3578 132.638 34.6449L134.052 36.0591ZM135.159 34.4131C135.43 33.7756 135.561 33.0971 135.561 32.388H133.561C133.561 32.8442 133.478 33.255 133.318 33.6309L135.159 34.4131ZM135.561 32.388C135.561 31.6691 135.431 30.9808 135.162 30.333L133.315 31.099C133.477 31.4899 133.561 31.9163 133.561 32.388H135.561ZM135.162 30.333C134.899 29.6981 134.529 29.1369 134.052 28.6599L132.638 30.0741C132.921 30.3571 133.147 30.6952 133.315 31.099L135.162 30.333ZM134.052 28.6599C133.575 28.1829 133.014 27.8135 132.379 27.5503L131.613 29.3977C132.017 29.5652 132.355 29.7911 132.638 30.0741L134.052 28.6599ZM132.387 27.5537C131.75 27.2827 131.071 27.151 130.362 27.151V29.151C130.818 29.151 131.229 29.2346 131.605 29.3943L132.387 27.5537ZM142.702 32.483V31.483H141.702V32.483H142.702ZM149.846 32.483H150.846V31.483H149.846V32.483ZM149.846 34.687V35.687H150.846V34.687H149.846ZM142.702 34.687H141.702V35.687H142.702V34.687ZM142.702 33.483H149.846V31.483H142.702V33.483ZM148.846 32.483V34.687H150.846V32.483H148.846ZM149.846 33.687H142.702V35.687H149.846V33.687ZM143.702 34.687V32.483H141.702V34.687H143.702ZM160.071 25.7H161.071V24.7H160.071V25.7ZM160.071 39V40H161.071V39H160.071ZM157.468 39H156.468V40H157.468V39ZM157.468 28.341H158.468V26.8519L157.089 27.4153L157.468 28.341ZM154.865 29.405H153.865V30.8941L155.243 30.3307L154.865 29.405ZM154.865 27.144L154.488 26.2176L153.865 26.471V27.144H154.865ZM158.418 25.7V24.7H158.222L158.041 24.7736L158.418 25.7ZM159.071 25.7V39H161.071V25.7H159.071ZM160.071 38H157.468V40H160.071V38ZM158.468 39V28.341H156.468V39H158.468ZM157.089 27.4153L154.486 28.4793L155.243 30.3307L157.846 29.2667L157.089 27.4153ZM155.865 29.405V27.144H153.865V29.405H155.865ZM155.241 28.0704L158.794 26.6264L158.041 24.7736L154.488 26.2176L155.241 28.0704ZM158.418 26.7H160.071V24.7H158.418V26.7ZM169.07 25.966L168.655 26.8758L168.661 26.8789L168.668 26.8818L169.07 25.966ZM170.913 27.315L170.158 27.9712L170.166 27.9799L170.174 27.9885L170.913 27.315ZM172.11 29.386L171.164 29.7111L171.169 29.7242L172.11 29.386ZM172.072 34.991L173.012 35.3317L173.014 35.3273L172.072 34.991ZM170.742 37.233L170.005 36.5566L170.005 36.5566L170.742 37.233ZM168.671 38.677L169.06 39.5984L168.671 38.677ZM163.845 38.848L163.524 39.795L163.531 39.7976L163.539 39.8L163.845 38.848ZM162.059 37.898L161.276 37.2753L160.661 38.0483L161.427 38.6729L162.059 37.898ZM163.541 36.036L164.153 35.2453L163.373 34.6413L162.758 35.4133L163.541 36.036ZM164.776 36.701L165.084 35.7496L165.084 35.7496L164.776 36.701ZM168.861 35.751L168.095 35.1084L168.094 35.1096L168.861 35.751ZM169.944 32.426L170.943 32.4702L171.067 29.6713L169.199 31.7592L169.944 32.426ZM168.348 33.566L168.735 34.488L168.743 34.4847L168.751 34.4813L168.348 33.566ZM162.99 32.825L162.318 33.566L162.33 33.5769L162.343 33.5875L162.99 32.825ZM162.04 31.533L161.128 31.9434L161.132 31.9521L162.04 31.533ZM162.078 28.132L162.981 28.562L162.985 28.5537L162.078 28.132ZM163.104 26.726L162.441 25.9774L162.435 25.9822L162.43 25.987L163.104 26.726ZM164.681 25.814L165.015 26.7567L165.026 26.7527L164.681 25.814ZM168.405 31.533L167.966 30.6342L167.958 30.6386L168.405 31.533ZM169.792 30.45L170.548 31.1042L170.885 30.7147L170.764 30.2144L169.792 30.45ZM168.69 28.436L169.379 27.7119L169.379 27.7119L168.69 28.436ZM164.966 28.284L164.331 27.5109L164.322 27.5191L164.966 28.284ZM164.947 31.343L164.305 32.1095L164.311 32.1147L164.317 32.1198L164.947 31.343ZM166.676 26.472C167.421 26.472 168.076 26.6117 168.655 26.8758L169.485 25.0562C168.62 24.6616 167.678 24.472 166.676 24.472V26.472ZM168.668 26.8818C169.258 27.1404 169.751 27.5025 170.158 27.9712L171.667 26.6588C171.062 25.9622 170.326 25.425 169.472 25.0502L168.668 26.8818ZM170.174 27.9885C170.591 28.4469 170.925 29.015 171.164 29.7111L173.056 29.0609C172.737 28.1357 172.273 27.3231 171.652 26.6415L170.174 27.9885ZM171.169 29.7242C171.416 30.413 171.547 31.1899 171.547 32.065H173.547C173.547 30.9895 173.386 29.9803 173.051 29.0478L171.169 29.7242ZM171.547 32.065C171.547 33.0291 171.404 33.889 171.13 34.6547L173.014 35.3273C173.373 34.3197 173.547 33.2289 173.547 32.065H171.547ZM171.132 34.6504C170.855 35.4129 170.477 36.0429 170.005 36.5566L171.478 37.9094C172.147 37.1818 172.655 36.3171 173.012 35.3316L171.132 34.6504ZM170.005 36.5566C169.537 37.0669 168.967 37.4669 168.282 37.7556L169.06 39.5984C169.996 39.2031 170.807 38.6404 171.478 37.9094L170.005 36.5566ZM168.282 37.7556C167.607 38.0404 166.848 38.19 165.992 38.19V40.19C167.086 40.19 168.113 39.9976 169.06 39.5984L168.282 37.7556ZM165.992 38.19C165.377 38.19 164.764 38.0932 164.151 37.896L163.539 39.8C164.344 40.0588 165.163 40.19 165.992 40.19V38.19ZM164.166 37.901C163.547 37.691 163.063 37.4266 162.691 37.1231L161.427 38.6729C162.017 39.1547 162.724 39.5236 163.524 39.795L164.166 37.901ZM162.841 38.5207L164.323 36.6587L162.758 35.4133L161.276 37.2753L162.841 38.5207ZM162.929 36.8267C163.404 37.1946 163.917 37.4742 164.468 37.6524L165.084 35.7496C164.773 35.6491 164.463 35.4854 164.153 35.2453L162.929 36.8267ZM164.468 37.6524C165.009 37.8275 165.583 37.91 166.182 37.91V35.91C165.767 35.91 165.404 35.8531 165.084 35.7496L164.468 37.6524ZM166.182 37.91C167.574 37.91 168.766 37.424 169.628 36.3924L168.094 35.1096C167.664 35.6234 167.069 35.91 166.182 35.91V37.91ZM169.627 36.3936C170.474 35.3843 170.874 34.0357 170.943 32.4702L168.945 32.3818C168.887 33.679 168.565 34.5471 168.095 35.1084L169.627 36.3936ZM169.199 31.7592C168.87 32.1268 168.457 32.4253 167.945 32.6507L168.751 34.4813C169.505 34.1494 170.157 33.6879 170.689 33.0928L169.199 31.7592ZM167.961 32.644C167.454 32.8568 166.915 32.965 166.334 32.965V34.965C167.172 34.965 167.975 34.8072 168.735 34.488L167.961 32.644ZM166.334 32.965C165.764 32.965 165.258 32.8793 164.807 32.7188L164.137 34.6032C164.826 34.8481 165.561 34.965 166.334 34.965V32.965ZM164.807 32.7188C164.339 32.5525 163.953 32.3312 163.637 32.0625L162.343 33.5875C162.862 34.0282 163.465 34.3642 164.137 34.6032L164.807 32.7188ZM163.661 32.084C163.355 31.8065 163.119 31.4851 162.948 31.1139L161.132 31.9521C161.417 32.5689 161.814 33.1088 162.318 33.566L163.661 32.084ZM162.952 31.1226C162.786 30.754 162.698 30.3441 162.698 29.88H160.698C160.698 30.6065 160.838 31.2986 161.128 31.9434L162.952 31.1226ZM162.698 29.88C162.698 29.3841 162.796 28.9498 162.981 28.5619L161.175 27.7021C160.853 28.3782 160.698 29.1093 160.698 29.88H162.698ZM162.985 28.5537C163.184 28.1254 163.448 27.7656 163.778 27.465L162.43 25.987C161.898 26.4717 161.479 27.0492 161.171 27.7103L162.985 28.5537ZM163.767 27.4746C164.106 27.1745 164.517 26.9329 165.015 26.7566L164.347 24.8714C163.629 25.1258 162.989 25.4922 162.441 25.9774L163.767 27.4746ZM165.026 26.7527C165.528 26.5681 166.076 26.472 166.676 26.472V24.472C165.857 24.472 165.075 24.6039 164.336 24.8753L165.026 26.7527ZM166.752 32.913C167.494 32.913 168.199 32.7537 168.852 32.4274L167.958 30.6386C167.597 30.8189 167.2 30.913 166.752 30.913V32.913ZM168.843 32.4318C169.493 32.115 170.061 31.6675 170.548 31.1042L169.035 29.7958C168.712 30.1698 168.356 30.4443 167.966 30.6342L168.843 32.4318ZM170.764 30.2144C170.524 29.2243 170.073 28.3722 169.379 27.7119L168 29.1601C168.371 29.5131 168.655 30.0037 168.82 30.6856L170.764 30.2144ZM169.379 27.7119C168.662 27.0281 167.781 26.676 166.79 26.676V28.676C167.268 28.676 167.654 28.8306 168 29.1601L169.379 27.7119ZM166.79 26.676C165.868 26.676 165.028 26.9399 164.332 27.5109L165.6 29.0571C165.892 28.8175 166.267 28.676 166.79 28.676V26.676ZM164.322 27.5191C163.618 28.1114 163.244 28.9027 163.244 29.823H165.244C165.244 29.502 165.351 29.2673 165.61 29.0489L164.322 27.5191ZM163.244 29.823C163.244 30.7343 163.605 31.5236 164.305 32.1095L165.589 30.5765C165.351 30.3771 165.244 30.153 165.244 29.823H163.244ZM164.317 32.1198C165 32.6736 165.839 32.913 166.752 32.913V30.913C166.195 30.913 165.831 30.7724 165.577 30.5662L164.317 32.1198Z" fill="white" mask="url(#path-1-outside-1_1_2074)"/>
<path d="M57.7131 34.451L57.713 34.451C55.676 33.4233 53.4238 32.9012 51.1462 32.9012H46.8218C46.0478 32.9012 45.4204 32.2737 45.4204 31.4997C45.4204 30.7258 46.0479 30.0984 46.8218 30.0984H46.8218H51.1454C53.4536 30.0984 55.7024 29.5187 57.7644 28.5232L57.7644 28.5232C58.197 28.3143 58.6825 28.197 59.197 28.197C61.0932 28.197 62.6157 29.794 62.4929 31.7176C62.3885 33.3526 61.0595 34.6858 59.425 34.795C58.8048 34.8364 58.2209 34.7073 57.7131 34.451Z" fill="#FFA2A1" stroke="white"/>
<path d="M9.97725 49.6803L9.97719 49.6803C9.54489 49.8226 9.14135 50.0799 8.81355 50.4547L8.81352 50.4547C7.95042 51.4413 7.95274 52.9489 8.81883 53.9331C9.83831 55.0917 11.604 55.1339 12.6774 54.0605C12.9687 53.7692 13.1771 53.428 13.3038 53.0651L9.97725 49.6803ZM9.97725 49.6803C11.7821 49.0859 13.4155 48.0672 14.7564 46.7263L17.2845 44.1982C17.7031 43.7796 18.3818 43.7796 18.8004 44.1982M9.97725 49.6803L18.8004 44.1982M18.8004 44.1982C19.219 44.6168 19.2191 45.2956 18.8004 45.7145L16.2729 48.242C14.9133 49.6017 13.931 51.2668 13.3038 53.0649L18.8004 44.1982Z" fill="#FFA2A1" stroke="white"/>
<path d="M43.9297 20.6897L43.9297 20.6897C43.4825 21.1369 42.7576 21.1369 42.3105 20.6897C41.8634 20.2426 41.8633 19.5177 42.3104 19.0704C42.3104 19.0704 42.3104 19.0703 42.3104 19.0703L44.9553 16.4254L44.9554 16.4254C46.3753 15.0053 47.4014 13.266 48.0567 11.3873C48.1905 11.0042 48.4103 10.6441 48.7177 10.3367C49.8503 9.20416 51.7136 9.24868 52.7893 10.4711L52.7893 10.4711C53.7033 11.5097 53.7058 13.1003 52.795 14.1416L52.7949 14.1417C52.4492 14.537 52.0233 14.8085 51.567 14.9588C49.6819 15.5797 47.9758 16.6437 46.5751 18.0443L43.9297 20.6897Z" fill="#FFA2A1" stroke="white"/>
<path d="M28.5476 57.7125L28.5476 57.7125C29.5754 55.6755 30.0975 53.4233 30.0975 51.1457V46.8213C30.0975 46.0473 30.7249 45.4199 31.4989 45.4199C32.2728 45.4199 32.9003 46.0474 32.9002 46.8213V46.8213V51.1449C32.9002 53.4531 33.4799 55.7019 34.4754 57.7639L34.4754 57.7639C34.6843 58.1964 34.8016 58.682 34.8016 59.1965C34.8016 61.0927 33.2047 62.6151 31.2811 62.4924C29.6461 62.388 28.3128 61.059 28.2037 59.4244C28.1623 58.8043 28.2914 58.2203 28.5476 57.7125Z" fill="#FFA2A1" stroke="white"/>
<path d="M30.1331 62.7438C30.2969 62.6312 30.4526 62.5076 30.599 62.3739L30.1331 62.7438ZM30.1331 62.7438C29.9492 62.6721 29.772 62.5864 29.6028 62.488L30.1331 62.7438ZM31.2838 62.4925L31.2838 62.4925L31.5759 57.3292C30.6376 55.3856 30.1001 53.2847 30.1001 51.145V46.8213C30.1001 46.0473 30.7275 45.4199 31.5015 45.4199C32.2756 45.4199 32.9029 46.0474 32.9029 46.8213V51.145C32.9029 53.4532 33.4827 55.7021 34.4782 57.764L34.9285 57.5466L34.4782 57.764C34.6871 58.1966 34.8044 58.6822 34.8044 59.1967C34.8044 61.0929 33.2074 62.6153 31.2838 62.4925Z" fill="#FFA2A1" stroke="white"/>
<path d="M23.0203 17.4358C23.0203 20.59 20.4633 23.147 17.3091 23.147C14.1549 23.147 11.5979 20.59 11.5979 17.4358C11.5979 14.2816 14.1549 11.7246 17.3091 11.7246C20.4633 11.7246 23.0203 14.2816 23.0203 17.4358Z" fill="#FFA2A1" stroke="white"/>
<path d="M17.0395 11.7309C17.1285 11.7267 17.2181 11.7246 17.3082 11.7246C20.4623 11.7246 23.0194 14.2816 23.0194 17.4358C23.0194 20.5901 20.4624 23.147 17.3082 23.147C17.2181 23.147 17.1285 23.1449 17.0395 23.1408C18.9461 21.9576 20.2165 19.8458 20.2165 17.4358C20.2165 15.0258 18.9462 12.9141 17.0395 11.7309Z" fill="#FFA2A1" stroke="white"/>
<path d="M51.2817 31.4997C51.2817 42.4248 42.4252 51.2812 31.5002 51.2812C20.5752 51.2812 11.7188 42.4248 11.7188 31.4997C11.7188 20.5747 20.5752 11.7183 31.5002 11.7183C42.4252 11.7183 51.2817 20.5747 51.2817 31.4997Z" fill="#FFA2A1" stroke="white"/>
<path d="M34.9388 12.0158C44.2254 13.6429 51.2831 21.7471 51.2831 31.4997C51.2831 41.2524 44.2255 49.3566 34.939 50.9836C42.8465 48.0445 48.4803 40.4307 48.4803 31.4997C48.4803 22.5688 42.8464 14.955 34.9388 12.0158Z" fill="#FFA2A1" stroke="white"/>
<path d="M42.7233 24.567C42.7233 26.5661 41.1027 28.1866 39.1036 28.1866C37.1045 28.1866 35.4839 26.5661 35.4839 24.567C35.4839 22.5679 37.1045 20.9473 39.1036 20.9473C41.1027 20.9473 42.7233 22.5679 42.7233 24.567Z" fill="#FFA2A1" stroke="white"/>
<path d="M38.2868 21.0409C38.55 20.9797 38.8243 20.9473 39.1065 20.9473C41.1056 20.9473 42.7262 22.5679 42.7262 24.567C42.7262 26.566 41.1056 28.1866 39.1065 28.1866C38.8244 28.1866 38.5501 28.1542 38.2869 28.0931C39.2871 27.2464 39.9234 25.9816 39.9234 24.567C39.9234 23.1523 39.2871 21.8875 38.2868 21.0409Z" fill="#FFA2A1" stroke="white"/>
<path d="M26.5371 39.4225C26.5371 40.6865 25.5124 41.7112 24.2484 41.7112C22.9844 41.7112 21.9597 40.6865 21.9597 39.4225C21.9597 38.1585 22.9844 37.1338 24.2484 37.1338C25.5124 37.1338 26.5371 38.1585 26.5371 39.4225Z" fill="#FFA2A1" stroke="white"/>
<path d="M48.5998 46.5415C48.5998 48.3655 47.1212 49.8442 45.2971 49.8442C43.4731 49.8442 41.9944 48.3655 41.9944 46.5415C41.9944 44.7174 43.4731 43.2388 45.2971 43.2388C47.1212 43.2388 48.5998 44.7174 48.5998 46.5415Z" fill="#FFA2A1" stroke="white"/>
<path d="M44.3948 43.3642C44.6816 43.2825 44.9844 43.2388 45.2977 43.2388C47.1218 43.2388 48.6004 44.7177 48.6004 46.5417C48.6004 48.3657 47.1218 49.8445 45.2977 49.8445C44.9843 49.8445 44.6816 49.8007 44.3947 49.7191C45.256 48.933 45.7977 47.8012 45.7977 46.5416C45.7977 45.2821 45.2561 44.1502 44.3948 43.3642Z" fill="#FFA2A1" stroke="white"/>
<path d="M5.28682 34.451L5.2868 34.451C4.779 34.7073 4.19505 34.8364 3.57491 34.795C1.94038 34.6858 0.611318 33.3526 0.506962 31.7176C0.384206 29.794 1.90661 28.197 3.80283 28.197C4.31734 28.197 4.8029 28.3143 5.23545 28.5232L5.23548 28.5232C7.29741 29.5187 9.54627 30.0984 11.8544 30.0984H16.1781H16.1782C16.9519 30.0984 17.5794 30.7258 17.5794 31.4997C17.5794 32.2737 16.952 32.9012 16.178 32.9012H11.8537C9.57604 32.9012 7.32383 33.4233 5.28682 34.451ZM5.45287 28.0729L5.45115 28.0765L5.45287 28.0729Z" fill="#FFA2A1" stroke="white"/>
<path d="M34.45 5.28682L34.45 5.2868C34.7063 4.779 34.8354 4.19505 34.794 3.57491C34.6848 1.94038 33.3516 0.611318 31.7166 0.506962M34.45 5.28682L31.7166 0.506962M34.45 5.28682C33.4223 7.32383 32.9002 9.57604 32.9002 11.8537V16.178C32.9002 16.952 32.2727 17.5794 31.4988 17.5794C30.7248 17.5794 30.0974 16.9519 30.0975 16.1782V16.1781V11.8544C30.0975 9.54627 29.5177 7.29741 28.5222 5.23548L28.5222 5.23545C28.3133 4.8029 28.196 4.31734 28.196 3.80283C28.196 1.90661 29.793 0.384206 31.7166 0.506962M34.45 5.28682L31.7484 0.00797766L31.7166 0.506962" fill="#FFA2A1" stroke="white"/>
<path d="M31.7175 0.50695L31.7175 0.506952C33.3525 0.611307 34.6858 1.94037 34.7949 3.5749L35.2938 3.54159L34.795 3.57498C34.8364 4.195 34.7073 4.77893 34.451 5.28678L34.451 5.28681C33.4232 7.32382 32.9011 9.57603 32.9011 11.8537V16.178C32.9011 16.952 32.2738 17.5794 31.4997 17.5794C30.7257 17.5794 30.0983 16.9519 30.0983 16.178V11.8537C30.0983 9.72853 30.5854 7.63109 31.5409 5.7373C31.876 5.07321 32.0435 4.31104 31.9899 3.50828L31.9899 3.50825C31.9139 2.37115 31.3873 1.35224 30.5924 0.62668C30.9462 0.525482 31.3246 0.481842 31.7175 0.50695Z" fill="#FFA2A1" stroke="white"/>
<path d="M58.2993 28.3237C58.5854 28.2426 58.8876 28.1992 59.2006 28.1992C61.0955 28.1992 62.6169 29.7951 62.4941 31.7174L62.4941 31.7174C62.3899 33.3513 61.0617 34.6836 59.4283 34.7927C59.032 34.8192 58.6505 34.776 58.2942 34.6744C59.0918 33.9461 59.6187 32.9223 59.6916 31.7811C59.7791 30.4113 59.2238 29.1681 58.2993 28.3237Z" fill="#FFA2A1" stroke="white"/>
</svg>
